<svg fill="none" height="64" viewBox="0 0 64 64" width="64" xmlns="http://www.w3.org/2000/svg"><path _ngcontent-fxb-c1="" d="M62.3368 64V63.1588C62.7005 56.0771 59.9392 51.525 51.8786 48.8331L60.4332 44.1629V2.04688H1.51562V52.5276L13.8987 51.0658C13.8987 51.0658 11.3233 52.6387 16.9916 60.0502C17.7604 61.2443 18.2576 62.5926 18.4482 64" fill="white"></path><path _ngcontent-fxb-c1="" d="M0 0L0.000881778 64H18.4482C18.2576 62.5927 17.7604 61.2444 16.9916 60.0503C13.9422 56.5589 14.6635 51.6213 15.3137 52.3679C15.9667 53.2722 16.931 53.9032 18.0211 54.1396C16.6444 51.563 15.8001 48.7358 15.5386 45.8262C15.5386 33.8052 19.9959 29.3017 19.9959 29.3017C19.9959 29.3017 20.3579 24.4513 19.7382 24.3284C18.3128 24.0472 16.4865 22.8298 16.4865 21.2433C15.7606 21.2074 15.0358 21.3317 14.3634 21.6073C13.691 21.8829 13.0874 22.303 12.5956 22.838C12.1037 23.373 11.7357 24.0096 11.5174 24.7028C11.2992 25.396 11.2362 26.1287 11.3328 26.8489C11.3212 27.3405 11.5026 27.8171 11.8381 28.1766C12.1737 28.5361 12.6367 28.7498 13.1279 28.7721C14.233 28.7721 14.6375 28.0655 14.6375 27.0832C14.624 26.9235 14.646 26.7628 14.702 26.6126C14.758 26.4624 14.8466 26.3264 14.9614 26.2145C15.0762 26.1026 15.2143 26.0175 15.3659 25.9653C15.5174 25.9132 15.6787 25.8952 15.838 25.9127C16.2052 25.9127 16.9204 26.0655 16.9204 28.1931C16.989 28.8831 16.9062 29.5797 16.6778 30.2344C16.4494 30.8891 16.0808 31.486 15.5979 31.9835C15.1149 32.481 14.5292 32.8671 13.8816 33.1149C13.234 33.3626 12.5401 33.4661 11.8484 33.418C8.93612 33.418 5.09676 31.2617 5.09676 24.0354C5.18803 20.7469 6.52715 17.6162 8.84232 15.2789C11.1575 12.9416 14.2753 11.5727 17.5628 11.4502C17.0051 11.5665 16.4788 11.8011 16.0194 12.1381C15.2155 12.745 14.4895 13.4489 13.8579 14.2336C14.1966 14.2519 14.534 14.2896 14.8683 14.3465C15.1278 14.3907 15.3941 14.3701 15.6437 14.2866C15.8933 14.2031 16.1183 14.0592 16.2989 13.8678C16.678 13.4473 17.0834 13.0512 17.5125 12.682C18.1035 12.2374 18.7804 11.9204 19.5003 11.7509C20.2202 11.5815 20.9674 11.5633 21.6947 11.6976C22.114 11.7701 22.5202 11.8582 22.9187 11.9658C21.7986 12.1022 20.7307 12.5176 19.8127 13.1737C18.9857 13.7924 18.2248 14.4948 17.542 15.2697C17.542 15.2697 17.9499 15.495 18.193 15.6343C18.4547 15.7326 18.7392 15.7534 19.0124 15.6939C19.2856 15.6345 19.5358 15.4974 19.7329 15.2992C20.1524 14.8758 20.6027 14.4841 21.0801 14.1273C21.8011 13.5052 22.6934 13.1156 23.6397 13.0097C24.5861 12.9039 25.5424 13.0866 26.383 13.534C26.5194 13.6238 26.6548 13.7202 26.7893 13.8165C25.6131 13.9634 24.4756 14.3332 23.4378 14.9059C22.3819 15.5688 21.4199 16.3706 20.5776 17.2897C20.5776 17.2897 20.9681 17.6004 21.1834 17.7715C21.4338 17.9144 21.7249 17.969 22.0101 17.9265C22.2952 17.884 22.5578 17.7469 22.7556 17.5372C23.2418 17.0637 23.7661 16.6311 24.3233 16.2437C25.4811 15.4759 26.8246 15.0345 28.2121 14.9659C28.6488 15.39 28.8093 15.7593 29.2286 15.7593C29.6852 15.7593 30.0038 15.4091 30.377 14.9273C31.4153 14.9266 32.428 15.25 33.2737 15.8523C33.7149 16.1097 34.1308 16.4082 34.5159 16.7438C35.0888 17.2225 35.522 17.1239 35.778 16.8705C35.9716 16.6778 36.2702 16.334 36.2702 16.334C35.6273 15.5787 34.8463 14.953 33.969 14.4903C33.1703 14.0348 32.2652 13.799 31.3458 13.807C31.5194 13.6456 31.702 13.494 31.8926 13.3531C32.4896 13.0663 33.1532 12.947 33.8126 13.0076C34.4721 13.0683 35.1027 13.3068 35.6373 13.6977C36.0691 13.927 36.4615 14.2239 36.7996 14.577C36.9455 14.7317 37.1387 14.8336 37.3487 14.8667C37.5588 14.8997 37.7739 14.8621 37.9603 14.7598C38.1534 14.6039 38.3687 14.4778 38.5991 14.3856C38.0141 13.6117 37.2583 12.9833 36.3908 12.5492C35.8689 12.2925 35.3042 12.1339 34.725 12.0813C35.551 11.891 36.4041 11.8484 37.245 11.9554C40.935 12.4529 42.0401 16.5415 41.81 20.1114C41.4237 26.0889 41.6286 27.5325 43.0696 27.5398C43.4156 27.5222 43.7425 27.376 43.9864 27.13C44.2303 26.8839 44.3736 26.5557 44.3881 26.2095C44.5053 25.4508 44.7275 24.8532 45.2171 24.8532C46.2258 24.8532 46.461 25.8215 46.461 26.4539C46.461 30.4423 43.8925 31.2469 41.6885 31.2469C39.4836 31.2469 37.7918 29.5351 37.198 26.5806C37.0097 25.6391 36.8639 24.699 36.8639 24.699C36.5449 24.772 36.2372 24.8876 35.949 25.0427C35.3812 25.3275 34.8031 25.6964 34.8031 25.6964C34.8031 25.6964 35.4273 27.1582 35.5618 27.5771C35.591 28.3741 35.5369 29.172 35.4004 29.9577C37.8097 33.8247 39.0571 38.3025 38.994 42.8581C38.994 50.3148 36.2285 57.1335 34.3335 59.6691C34.8956 59.5421 35.4267 59.3046 35.896 58.9703C37.672 57.2333 38.1235 56.8983 39.9923 56.7324C41.1816 53.6231 41.5982 49.7871 40.4038 41.0907C47.1954 45.8512 47.4011 49.8356 46.4367 54.189C50.6979 52.011 48.3109 47.7219 48.3109 47.7219C49.3466 48.413 50.4449 49.0056 51.5912 49.4919C59.4931 52.728 62.3368 56.9868 62.3368 63.1587V64H64V0H0Z" fill="#05C3DE"></path><path _ngcontent-fxb-c1="" d="M33.4412 29.8712C33.0801 29.8321 33.0706 29.8147 33.0697 28.9171C33.0688 28.2149 33.4438 28.2027 34.1044 28.3938C34.1782 27.9501 34.3961 26.6506 33.8648 26.6506C33.4655 26.6506 33.1591 26.9623 32.6347 26.9623C32.0202 26.9623 30.8205 26.5456 30.4065 26.5456C29.6261 26.5456 30.0272 27.9141 30.0272 28.4562C31.5801 28.2531 32.226 28.0248 32.226 28.7505C32.226 29.9649 32.4256 29.7722 30.4681 29.9424C29.4551 30.0292 28.8788 30.0821 28.2737 30.096C28.2737 30.096 27.7016 27.8104 28.0029 27.3534C28.516 26.5725 29.0861 25.8305 29.7086 25.1337C30.074 24.7236 30.074 24.7236 29.8883 24.158C29.6348 23.3949 28.6461 20.3776 28.6461 20.3776C28.5703 19.9686 28.5883 19.5478 28.6988 19.1468C28.8093 18.7458 29.0095 18.3752 29.2841 18.0628C29.4595 17.8211 29.3336 17.7212 29.1522 17.809C28.1782 18.279 26.6287 19.2855 26.6886 20.6371C26.7355 21.7122 26.2781 21.5468 25.4639 21.3589C24.7708 21.1669 24.0469 21.112 23.3328 21.197C22.252 21.3836 21.5914 22.1662 21.7356 22.9188C21.8632 23.5876 22.4457 24.1931 24.1488 24.1931C25.7972 24.1931 25.9752 23.1897 26.713 24.5134C27.3423 25.6372 27.8676 25.9757 26.9778 26.8646C24.7685 29.0752 24.6912 28.3564 24.6912 30.6029C24.6912 32.9719 27.199 34.8339 28.5645 34.4017C29.7086 34.1449 30.829 33.7915 31.9134 33.3452C31.989 33.2897 31.9742 33.1065 31.87 33.1048C31.3866 33.0995 29.5228 33.1083 29.3779 32.4329C29.232 31.7567 29.1236 31.2558 29.1236 31.2558C30.2083 31.052 31.3107 30.958 32.4143 30.9754C33.032 30.9801 33.649 31.0189 34.2624 31.0917C34.374 30.7487 34.4297 30.3899 34.4274 30.0292C34.1022 29.9565 33.7728 29.9037 33.4412 29.8712Z" fill="#05C3DE"></path><path _ngcontent-fxb-c1="" d="M33.7163 23.5217C34.0121 23.6804 34.3394 23.7717 34.6747 23.7889C35.01 23.8062 35.345 23.749 35.6555 23.6215C36.8787 23.2053 37.0218 21.7994 35.6798 21.5681C34.6347 21.388 34.2996 21.9318 33.6617 21.3368C33.2163 20.9227 32.9308 20.6397 32.62 20.3389C32.4829 20.2078 32.3475 20.1041 32.2797 20.1293C32.2103 20.154 32.1808 20.2369 32.2693 20.4474C32.6396 21.5212 33.1248 22.552 33.7163 23.5217Z" fill="#05C3DE"></path><path _ngcontent-fxb-c1="" d="M53.7161 39.169C54.3188 39.1738 54.9064 39.3571 55.405 39.6958C55.9035 40.0344 56.2905 40.5132 56.5171 41.0716C56.7437 41.63 56.7997 42.2431 56.6781 42.8333C56.5565 43.4236 56.2628 43.9646 55.8339 44.388C55.4051 44.8114 54.8604 45.0982 54.2686 45.2123C53.6769 45.3263 53.0646 45.2625 52.5091 45.0287C51.9536 44.795 51.4798 44.402 51.1476 43.8992C50.8153 43.3964 50.6395 42.8064 50.6424 42.2038C50.6421 41.8019 50.7217 41.4039 50.8765 41.033C51.0314 40.6622 51.2584 40.3258 51.5444 40.0434C51.8304 39.761 52.1697 39.5383 52.5425 39.3882C52.9153 39.2381 53.3143 39.1636 53.7161 39.169Z" fill="white"></path><path _ngcontent-fxb-c1="" d="M53.7817 39.6186C53.2625 39.5987 52.7493 39.7347 52.308 40.0091C51.8668 40.2834 51.5179 40.6836 51.306 41.158C51.0942 41.6324 51.0293 42.1594 51.1195 42.671C51.2098 43.1827 51.4512 43.6556 51.8125 44.0289C52.1739 44.4021 52.6388 44.6587 53.1472 44.7655C53.6557 44.8723 54.1845 44.8245 54.6655 44.6281C55.1465 44.4318 55.5578 44.096 55.8463 43.6639C56.1348 43.2318 56.2873 42.7232 56.2843 42.2037C56.2942 41.8685 56.2368 41.5347 56.1156 41.222C55.9943 40.9093 55.8117 40.6241 55.5784 40.3831C55.3452 40.1422 55.066 39.9504 54.7574 39.8191C54.4488 39.6878 54.117 39.6196 53.7817 39.6186ZM54.7036 43.9954L53.7313 42.4633H53.1454V43.9954H52.5907V40.4319H53.9701C54.8173 40.4319 55.2157 40.7671 55.2157 41.452C55.2235 41.5786 55.2048 41.7055 55.1609 41.8245C55.1169 41.9435 55.0487 42.0521 54.9605 42.1433C54.8723 42.2345 54.7661 42.3063 54.6486 42.3543C54.5312 42.4022 54.405 42.4251 54.2782 42.4216L55.2982 43.9954H54.7036Z" fill="#05C3DE"></path><path _ngcontent-fxb-c1="" d="M54.6534 41.4276C54.6534 40.9544 54.2454 40.8806 53.8695 40.8806H53.136V42.0161H53.7132C54.2046 42.0161 54.6534 41.9892 54.6534 41.4276Z" fill="#05C3DE"></path></svg>