<svg class="header-bar-logo-brand-svg" fill="none" height="20" viewBox="0 0 108 20" width="108" xmlns="http://www.w3.org/2000/svg"><path _ngcontent-fxb-c1="" d="M23.4364 0C26.1617 0 27.4261 1.25924 27.4261 3.29147C27.4261 6.21514 25.2624 6.99494 24.1935 7.28566C25.136 8.25927 28.5992 14.2069 28.5992 14.2069C28.8989 14.7357 29.3172 15.2208 30.1967 15.2208L30.2721 15.7988C29.9904 15.8629 29.6136 16 28.7641 16C26.9818 16 25.9537 15.5965 24.2134 12.7482C22.932 10.6502 22.1335 8.87359 20.8205 6.86629H21.3679C23.1632 6.86629 24.3936 5.90061 24.3936 3.77714C24.3936 2.0668 23.9232 1.01668 21.8139 1.01668H20.4787C20.2384 1.01668 20.1614 1.12266 20.1614 1.36974V13.5263C20.1614 14.0097 20.6941 14.0216 21.4625 14.1667L21.6955 14.8354H15.7013L15.9343 14.1667C16.705 14.0216 17.2354 14.0097 17.2354 13.5263V1.31421C17.2354 0.828534 16.705 0.816633 15.9343 0.669288L15.7013 0H23.4364ZM98.2419 4.71222C101.911 4.71222 102.525 8.03202 102.602 9.15468L102.039 9.67662H96.3162C96.3162 12.1146 97.4434 13.9156 99.5663 13.9156C100.542 13.9156 101.342 13.4339 101.595 13.2747L101.671 13.9746C101.3 14.2976 100.261 15.1919 98.2482 15.1919C94.9306 15.1919 93.5903 12.691 93.5903 9.95091C93.5903 8.22243 94.101 4.71222 98.2419 4.71222ZM56.6242 4.71222C60.2965 4.71222 60.9148 8.03202 60.9885 9.15468L60.4291 9.67662H54.7036C54.7036 12.1146 55.8297 13.9156 57.9549 13.9156C58.9296 13.9156 59.7253 13.4339 59.9848 13.2747L60.0591 13.9746C59.6884 14.2976 58.6468 15.1919 56.6378 15.1919C53.3186 15.1919 51.9761 12.691 51.9761 9.95091C51.9761 8.22243 52.4844 4.71222 56.6242 4.71222ZM33.8265 4.71222C37.0069 4.71222 38.7121 6.90993 38.7121 9.94637C38.7121 12.8559 37.1066 15.1919 33.8265 15.1919C30.5475 15.1919 28.9454 12.8814 28.9454 9.94637C28.9199 7.10488 30.5135 4.71222 33.8265 4.71222ZM89.803 4.71222C91.591 4.71222 92.7386 5.13385 92.861 5.17012L92.3594 8.31424H91.6629C91.4238 6.55913 90.8934 5.66203 89.6358 5.66203C87.9839 5.66203 87.4511 7.60472 87.4511 9.56158C87.4511 11.9899 88.7631 13.9156 90.9563 13.9156C91.8256 13.9156 92.7272 13.4589 93.0191 13.2747L93.0939 13.9746C92.7675 14.2375 91.625 15.189 89.7849 15.189C86.2525 15.189 84.7151 12.589 84.7151 9.80073C84.7151 6.36475 86.8045 4.71222 89.803 4.71222ZM12.4943 12.1838C13.2565 12.1838 13.8799 12.8015 13.8799 13.5677C13.8799 14.3344 13.2565 14.9533 12.4943 14.9533C11.7225 14.9533 11.1047 14.3344 11.1047 13.5677C11.1047 12.8015 11.7225 12.1838 12.4943 12.1838ZM83.2297 4.76379L83.2263 13.6714C83.3606 14.0766 84.0004 14.0511 84.4005 14.1667C84.5462 14.4319 84.532 14.382 84.6845 14.8354H79.3477C79.5585 14.4869 79.5478 14.4217 79.6889 14.1667C80.0703 13.9848 80.5883 13.9995 80.671 13.5048V5.15482C81.491 5.00124 82.3751 4.91397 83.2297 4.76379ZM12.1005 0L12.2637 3.82304H11.5434C11.1982 2.20621 11.1263 1.33518 10.058 1.33518H7.59508V13.5263C7.59508 14.0097 8.12553 14.0216 8.89342 14.1667L9.12918 14.8354H3.13392L3.36797 14.1667C4.1336 14.0216 4.66858 14.0097 4.66858 13.5263V1.33518H2.20111C1.13399 1.33518 1.06089 2.20621 0.716892 3.82304H0L0.161513 0H12.1005ZM43.5337 5.06641L43.2969 5.73513C42.6009 5.85811 42.4241 6.04909 42.4241 6.38572C42.4241 6.6158 42.5142 6.9683 42.5981 7.33156L42.6229 7.43541C42.8558 8.41365 42.9022 8.67743 43.4045 10.6967L45.1511 5.06641H46.8133L48.5072 10.7369C48.5072 10.7369 49.134 8.17256 49.4973 6.66568C49.5471 6.46903 49.5766 6.31035 49.5766 6.17094C49.5766 5.90061 49.3074 5.83941 48.7611 5.73513L48.5265 5.06641H52.5456L52.3127 5.73513C51.6961 5.84394 51.2065 5.87908 50.9832 6.61977L48.811 14.8354H47.155L45.3007 9.01243L43.5224 14.8354H41.9299L39.5673 6.25424C39.4711 5.92746 39.0317 5.84539 38.568 5.76848L38.3687 5.73513L38.1324 5.06641H43.5337ZM70.2945 0C73.0685 0 74.2824 1.28644 74.2824 3.37024C74.2824 4.19934 74.0399 4.92133 73.8387 5.25173L75.986 4.65838V6.54156C76.6836 5.62972 77.9111 4.64704 79.533 4.71165L78.959 8.31424H78.2647C78.1231 7.32703 77.8301 6.77165 77.2163 6.77165C76.5374 6.77165 76.1883 7.29586 75.9882 7.58488L75.9894 13.5263C75.9894 14.0097 76.5227 14.0216 77.29 14.1667L77.5235 14.8354H71.8971L72.1318 14.1667C72.9002 14.0216 73.4352 14.0097 73.4352 13.5263V7.0159C73.4352 6.5682 73.2573 6.37892 72.9937 6.31885C72.5596 6.71781 70.8986 7.79967 69.2268 7.79967C68.7627 7.79967 68.3461 7.73903 68.2152 7.72203L67.6763 6.86629H68.273C70.1562 6.86629 71.2477 5.74817 71.2477 3.76297C71.2477 2.05603 70.7717 1.01668 68.5983 1.01668H67.3374C67.0835 1.01668 67.0189 1.13796 67.0189 1.37598V13.5263C67.0189 14.0097 67.5493 14.0216 68.3201 14.1667L68.5518 14.8354H62.5549L62.7918 14.1667C63.5585 14.0216 64.089 14.0097 64.089 13.5263V1.31421C64.089 0.828534 63.5585 0.816633 62.7918 0.669288L62.5549 0H70.2945ZM33.8265 5.66203C32.0567 5.66203 31.8045 7.68009 31.8045 9.94637C31.8045 13.0253 32.3939 14.2404 33.8265 14.2404C35.2898 14.2404 35.8531 12.9381 35.8531 9.94637C35.8531 7.04481 35.3436 5.66203 33.8265 5.66203ZM98.1983 5.66203C96.5877 5.66203 96.3678 7.70333 96.3678 8.75174H100.031C100.031 7.59395 99.7482 5.66203 98.1983 5.66203ZM56.5868 5.66203C54.9796 5.66203 54.7569 7.70333 54.7569 8.75174H58.4156C58.4156 7.59395 58.1385 5.66203 56.5868 5.66203ZM105.185 2.54681C105.708 2.54681 106.157 2.73212 106.53 3.10332C106.899 3.47112 107.084 3.92449 107.084 4.46343C107.084 4.80346 106.991 5.12535 106.806 5.43137C106.618 5.7374 106.366 5.97145 106.05 6.1341C105.779 6.27238 105.492 6.34152 105.188 6.34152C104.831 6.34152 104.5 6.24744 104.196 6.06043C103.894 5.87454 103.661 5.62179 103.498 5.3016C103.36 5.03128 103.292 4.74395 103.292 4.43963C103.292 4.0826 103.384 3.75221 103.57 3.44788C103.752 3.14922 104.004 2.918 104.326 2.75366C104.595 2.61595 104.881 2.54681 105.185 2.54681ZM105.188 2.9044C104.767 2.9044 104.406 3.05571 104.106 3.35777C103.811 3.6536 103.663 4.01176 103.663 4.43509C103.663 4.8624 103.813 5.22736 104.111 5.52998C104.408 5.83204 104.766 5.98335 105.185 5.98335C105.607 5.98335 105.968 5.83091 106.267 5.52715C106.408 5.38207 106.518 5.21659 106.596 5.03128C106.673 4.84199 106.713 4.64988 106.713 4.45606C106.713 4.01176 106.565 3.6451 106.269 3.35494C105.964 3.05458 105.603 2.9044 105.188 2.9044ZM105.315 3.43768C105.476 3.43768 105.593 3.44958 105.668 3.47452C105.783 3.51022 105.874 3.57822 105.941 3.6791C106.006 3.77487 106.039 3.89105 106.039 4.02933C106.039 4.16477 106.01 4.27471 105.951 4.35802C105.925 4.39656 105.879 4.43963 105.814 4.48723C105.881 4.5286 105.927 4.57734 105.951 4.63344C105.975 4.68841 105.991 4.81139 105.999 5.00237C106.008 5.18089 106.019 5.29083 106.031 5.3339C106.04 5.37074 106.078 5.41211 106.145 5.45801H105.583C105.547 5.3645 105.528 5.25116 105.525 5.11912C105.519 4.93493 105.508 4.82443 105.49 4.78759C105.47 4.74339 105.438 4.71505 105.392 4.70258C105.356 4.69408 105.301 4.68955 105.228 4.68955H104.891V5.45801H104.419V3.43768H105.315ZM105.241 3.85365H104.891V4.29172H105.238C105.374 4.29172 105.461 4.27528 105.498 4.24411C105.544 4.20671 105.567 4.14834 105.567 4.06843C105.567 3.98739 105.543 3.92902 105.495 3.89332C105.458 3.86725 105.373 3.85365 105.241 3.85365ZM81.9937 1.18273C82.7673 1.18273 83.3923 1.81008 83.3923 2.58194C83.3923 3.35211 82.7673 3.97946 81.9937 3.97946C81.2213 3.97946 80.5939 3.35211 80.5939 2.58194C80.5939 1.81008 81.2213 1.18273 81.9937 1.18273Z" fill="white"></path></svg>